<svg width="159" height="33" viewBox="0 0 159 33" fill="none" xmlns="http://www.w3.org/2000/svg">
    <rect width="159" height="33" fill="#6F21BD"/>
    <path d="M17.72 27.36C15.304 27.36 13.24 26.504 11.528 24.792C9.816 23.08 8.96 21.016 8.96 18.6C8.96 16.184 9.816 14.12 11.528 12.408C13.24 10.696 15.304 9.84 17.72 9.84C20.136 9.84 22.2 10.696 23.912 12.408C25.624 14.12 26.48 16.184 26.48 18.6C26.48 21.016 25.624 23.08 23.912 24.792C22.2 26.504 20.136 27.36 17.72 27.36ZM17.72 12.72C16.104 12.72 14.72 13.296 13.568 14.448C12.416 15.6 11.84 16.984 11.84 18.6C11.84 20.216 12.416 21.6 13.568 22.752C14.72 23.904 16.104 24.48 17.72 24.48C19.336 24.48 20.72 23.904 21.872 22.752C23.024 21.6 23.6 20.216 23.6 18.6C23.6 16.984 23.024 15.6 21.872 14.448C20.72 13.296 19.336 12.72 17.72 12.72ZM31.9897 21H31.5097V27H28.6297V10.2H31.9897C33.5897 10.2 34.9257 10.712 35.9977 11.736C37.0857 12.744 37.6297 14.032 37.6297 15.6C37.6297 17.152 37.0857 18.448 35.9977 19.488C34.9257 20.496 33.5897 21 31.9897 21ZM31.9897 13.08H31.5097V18.12H31.9897C32.7737 18.12 33.4297 17.88 33.9577 17.4C34.4857 16.92 34.7497 16.32 34.7497 15.6C34.7497 14.88 34.4857 14.28 33.9577 13.8C33.4297 13.32 32.7737 13.08 31.9897 13.08ZM42.6659 13.08V27H39.7859V10.2H47.7059V13.08H42.6659ZM49.8659 23.4L48.0659 27H44.8259L53.2019 10.2H56.4419L64.8419 27H61.6259L59.8019 23.4H49.8659ZM58.3619 20.52L54.8339 13.464L51.3059 20.52H58.3619ZM82.8303 10.2V27H79.9503V20.04H69.1503V27H66.2703V10.2H69.1503V17.16H79.9503V10.2H82.8303ZM89.3113 23.4L87.5113 27H84.2713L92.6473 10.2H95.8873L104.287 27H101.071L99.2473 23.4H89.3113ZM97.8073 20.52L94.2793 13.464L90.7513 20.52H97.8073ZM106.268 5.4H109.148C109.148 5.752 109.252 6.064 109.46 6.336C109.684 6.592 109.98 6.72 110.348 6.72C110.716 6.72 111.004 6.592 111.212 6.336C111.436 6.064 111.548 5.752 111.548 5.4H114.428C114.428 6.456 114.036 7.344 113.252 8.064C112.468 8.768 111.5 9.12 110.348 9.12C109.196 9.12 108.22 8.768 107.42 8.064C106.652 7.344 106.268 6.456 106.268 5.4ZM112.316 27V17.4L108.596 27H105.716V10.2H108.596V19.8L112.316 10.2H115.196V27H112.316ZM117.118 21.432H119.998V22.152C119.998 22.808 120.214 23.36 120.646 23.808C121.094 24.256 121.654 24.48 122.326 24.48C123.03 24.48 123.598 24.264 124.03 23.832C124.462 23.384 124.678 22.824 124.678 22.152C124.678 21.448 124.454 20.88 124.006 20.448C123.558 20.016 122.918 19.8 122.086 19.8H120.886V16.92H122.086C122.854 16.92 123.438 16.736 123.838 16.368C124.238 15.984 124.438 15.472 124.438 14.832C124.438 14.208 124.238 13.704 123.838 13.32C123.454 12.92 122.95 12.72 122.326 12.72C121.718 12.72 121.214 12.928 120.814 13.344C120.43 13.744 120.238 14.24 120.238 14.832V15.312H117.358V14.832C117.358 13.328 117.806 12.12 118.702 11.208C119.614 10.296 120.822 9.84 122.326 9.84C123.814 9.84 125.014 10.296 125.926 11.208C126.854 12.088 127.318 13.256 127.318 14.712C127.318 16.2 126.678 17.4 125.398 18.312C126.838 19.224 127.558 20.544 127.558 22.272C127.558 23.792 127.07 25.016 126.094 25.944C125.118 26.888 123.862 27.36 122.326 27.36C120.79 27.36 119.534 26.888 118.558 25.944C117.598 24.984 117.118 23.72 117.118 22.152V21.432ZM129.716 10.2H137.636V13.08H132.596V17.16H137.396V20.04H132.596V24.12H137.636V27H129.716V10.2ZM143.388 21H142.908V27H140.028V10.2H143.388C144.988 10.2 146.324 10.712 147.396 11.736C148.484 12.744 149.028 14.032 149.028 15.6C149.028 17.152 148.484 18.448 147.396 19.488C146.324 20.496 144.988 21 143.388 21ZM143.388 13.08H142.908V18.12H143.388C144.172 18.12 144.828 17.88 145.356 17.4C145.884 16.92 146.148 16.32 146.148 15.6C146.148 14.88 145.884 14.28 145.356 13.8C144.828 13.32 144.172 13.08 143.388 13.08Z"
          fill="white"/>
</svg>
